<?xml version="1.0" encoding="UTF-8" standalone="no"?>
<!DOCTYPE svg PUBLIC "-//W3C//DTD SVG 1.1//EN"
 "http://www.w3.org/Graphics/SVG/1.1/DTD/svg11.dtd">
<!-- Generated by graphviz version 2.40.1 (20161225.0304)
 -->
<!-- Title: dependencies Pages: 1 -->
<svg width="635pt" height="211pt"
 viewBox="0.00 0.00 635.00 211.00" xmlns="http://www.w3.org/2000/svg" xmlns:xlink="http://www.w3.org/1999/xlink">
<g id="graph0" class="graph" transform="scale(1 1) rotate(0) translate(4 207)">
<title>dependencies</title>
<polygon fill="#ffffff" stroke="transparent" points="-4,4 -4,-207 631,-207 631,4 -4,4"/>
<text text-anchor="start" x="292.5091" y="-42.4" font-family="sans-serif" font-weight="bold" font-size="14.00" fill="#000000">Legend</text>
<polygon fill="#ffffb3" stroke="transparent" points="79.5,-10 79.5,-30 99.5,-30 99.5,-10 79.5,-10"/>
<text text-anchor="start" x="103.129" y="-15.4" font-family="sans-serif" font-size="14.00" fill="#000000"> &#160;Declarations</text>
<polygon fill="#8dd3c7" stroke="transparent" points="192.5,-10 192.5,-30 212.5,-30 212.5,-10 192.5,-10"/>
<text text-anchor="start" x="216.2251" y="-15.4" font-family="sans-serif" font-size="14.00" fill="#000000"> &#160;Module</text>
<polygon fill="#80b1d3" stroke="transparent" points="278.5,-10 278.5,-30 298.5,-30 298.5,-10 278.5,-10"/>
<text text-anchor="start" x="302.2812" y="-15.4" font-family="sans-serif" font-size="14.00" fill="#000000"> &#160;Bootstrap</text>
<polygon fill="#fdb462" stroke="transparent" points="375.5,-10 375.5,-30 395.5,-30 395.5,-10 375.5,-10"/>
<text text-anchor="start" x="399.1732" y="-15.4" font-family="sans-serif" font-size="14.00" fill="#000000"> &#160;Providers</text>
<polygon fill="#fb8072" stroke="transparent" points="471.5,-10 471.5,-30 491.5,-30 491.5,-10 471.5,-10"/>
<text text-anchor="start" x="495.2258" y="-15.4" font-family="sans-serif" font-size="14.00" fill="#000000"> &#160;Exports</text>
<g id="clust1" class="cluster">
<title>cluster_HomeModule</title>
<polygon fill="none" stroke="#000000" stroke-dasharray="1,5" points="8,-70 8,-195 619,-195 619,-70 8,-70"/>
</g>
<g id="clust2" class="cluster">
<title>cluster_HomeModule_declarations</title>
<polygon fill="none" stroke="#000000" points="16,-78 16,-130 611,-130 611,-78 16,-78"/>
</g>
<!-- AboutComponent -->
<g id="node1" class="node">
<title>AboutComponent</title>
<polygon fill="#ffffb3" stroke="#000000" points="603.3301,-122 486.6699,-122 486.6699,-86 603.3301,-86 603.3301,-122"/>
<text text-anchor="middle" x="545" y="-99.8" font-family="Times,serif" font-size="14.00" fill="#000000">AboutComponent</text>
</g>
<!-- HomeModule -->
<g id="node5" class="node">
<title>HomeModule</title>
<polygon fill="#8dd3c7" stroke="#000000" points="340.7619,-187 337.7619,-191 316.7619,-191 313.7619,-187 247.2381,-187 247.2381,-151 340.7619,-151 340.7619,-187"/>
<text text-anchor="middle" x="294" y="-164.8" font-family="Times,serif" font-size="14.00" fill="#000000">HomeModule</text>
</g>
<!-- AboutComponent&#45;&gt;HomeModule -->
<g id="edge1" class="edge">
<title>AboutComponent&#45;&gt;HomeModule</title>
<path fill="none" stroke="#000000" d="M545,-122.1061C545,-141.3391 545,-169 545,-169 545,-169 350.9167,-169 350.9167,-169"/>
<polygon fill="#000000" stroke="#000000" points="350.9168,-165.5001 340.9167,-169 350.9167,-172.5001 350.9168,-165.5001"/>
</g>
<!-- AnswerCallModalComponent -->
<g id="node2" class="node">
<title>AnswerCallModalComponent</title>
<polygon fill="#ffffb3" stroke="#000000" points="468.2478,-122 283.7522,-122 283.7522,-86 468.2478,-86 468.2478,-122"/>
<text text-anchor="middle" x="376" y="-99.8" font-family="Times,serif" font-size="14.00" fill="#000000">AnswerCallModalComponent</text>
</g>
<!-- AnswerCallModalComponent&#45;&gt;HomeModule -->
<g id="edge2" class="edge">
<title>AnswerCallModalComponent&#45;&gt;HomeModule</title>
<path fill="none" stroke="#000000" d="M312.2535,-122.1061C312.2535,-122.1061 312.2535,-140.991 312.2535,-140.991"/>
<polygon fill="#000000" stroke="#000000" points="308.7536,-140.9909 312.2535,-150.991 315.7536,-140.991 308.7536,-140.9909"/>
</g>
<!-- ChatComponent -->
<g id="node3" class="node">
<title>ChatComponent</title>
<polygon fill="#ffffb3" stroke="#000000" points="265.7744,-122 158.2256,-122 158.2256,-86 265.7744,-86 265.7744,-122"/>
<text text-anchor="middle" x="212" y="-99.8" font-family="Times,serif" font-size="14.00" fill="#000000">ChatComponent</text>
</g>
<!-- ChatComponent&#45;&gt;HomeModule -->
<g id="edge3" class="edge">
<title>ChatComponent&#45;&gt;HomeModule</title>
<path fill="none" stroke="#000000" d="M256.5032,-122.1061C256.5032,-122.1061 256.5032,-140.991 256.5032,-140.991"/>
<polygon fill="#000000" stroke="#000000" points="253.0032,-140.9909 256.5032,-150.991 260.0032,-140.991 253.0032,-140.9909"/>
</g>
<!-- HomeComponent -->
<g id="node4" class="node">
<title>HomeComponent</title>
<polygon fill="#ffffb3" stroke="#000000" points="139.5451,-122 24.4549,-122 24.4549,-86 139.5451,-86 139.5451,-122"/>
<text text-anchor="middle" x="82" y="-99.8" font-family="Times,serif" font-size="14.00" fill="#000000">HomeComponent</text>
</g>
<!-- HomeComponent&#45;&gt;HomeModule -->
<g id="edge4" class="edge">
<title>HomeComponent&#45;&gt;HomeModule</title>
<path fill="none" stroke="#000000" d="M82,-122.1061C82,-141.3391 82,-169 82,-169 82,-169 237.2133,-169 237.2133,-169"/>
<polygon fill="#000000" stroke="#000000" points="237.2133,-172.5001 247.2133,-169 237.2132,-165.5001 237.2133,-172.5001"/>
</g>
</g>
</svg>
