<?xml version="1.0" encoding="UTF-8" standalone="no"?>
<!DOCTYPE svg PUBLIC "-//W3C//DTD SVG 1.1//EN"
 "http://www.w3.org/Graphics/SVG/1.1/DTD/svg11.dtd">
<!-- Generated by graphviz version 2.40.1 (20161225.0304)
 -->
<!-- Title: dependencies Pages: 1 -->
<svg width="1762pt" height="284pt"
 viewBox="0.00 0.00 1762.00 284.00" xmlns="http://www.w3.org/2000/svg" xmlns:xlink="http://www.w3.org/1999/xlink">
<g id="graph0" class="graph" transform="scale(1 1) rotate(0) translate(4 280)">
<title>dependencies</title>
<polygon fill="#ffffff" stroke="transparent" points="-4,4 -4,-280 1758,-280 1758,4 -4,4"/>
<text text-anchor="start" x="856.0091" y="-42.4" font-family="sans-serif" font-weight="bold" font-size="14.00" fill="#000000">Legend</text>
<polygon fill="#ffffb3" stroke="transparent" points="643,-10 643,-30 663,-30 663,-10 643,-10"/>
<text text-anchor="start" x="666.629" y="-15.4" font-family="sans-serif" font-size="14.00" fill="#000000"> &#160;Declarations</text>
<polygon fill="#8dd3c7" stroke="transparent" points="756,-10 756,-30 776,-30 776,-10 756,-10"/>
<text text-anchor="start" x="779.7251" y="-15.4" font-family="sans-serif" font-size="14.00" fill="#000000"> &#160;Module</text>
<polygon fill="#80b1d3" stroke="transparent" points="842,-10 842,-30 862,-30 862,-10 842,-10"/>
<text text-anchor="start" x="865.7812" y="-15.4" font-family="sans-serif" font-size="14.00" fill="#000000"> &#160;Bootstrap</text>
<polygon fill="#fdb462" stroke="transparent" points="939,-10 939,-30 959,-30 959,-10 939,-10"/>
<text text-anchor="start" x="962.6732" y="-15.4" font-family="sans-serif" font-size="14.00" fill="#000000"> &#160;Providers</text>
<polygon fill="#fb8072" stroke="transparent" points="1035,-10 1035,-30 1055,-30 1055,-10 1035,-10"/>
<text text-anchor="start" x="1058.7258" y="-15.4" font-family="sans-serif" font-size="14.00" fill="#000000"> &#160;Exports</text>
<g id="clust1" class="cluster">
<title>cluster_ApiTestingModule</title>
<polygon fill="none" stroke="#000000" stroke-dasharray="1,5" points="8,-70 8,-195 184,-195 184,-70 8,-70"/>
</g>
<g id="clust2" class="cluster">
<title>cluster_ApiTestingModule_declarations</title>
<polygon fill="none" stroke="#000000" points="16,-78 16,-130 176,-130 176,-78 16,-78"/>
</g>
<g id="clust8" class="cluster">
<title>cluster_AppModule</title>
<polygon fill="none" stroke="#000000" stroke-dasharray="1,5" points="192,-70 192,-268 658,-268 658,-70 192,-70"/>
</g>
<g id="clust9" class="cluster">
<title>cluster_AppModule_declarations</title>
<polygon fill="none" stroke="#000000" points="528,-78 528,-130 650,-130 650,-78 528,-78"/>
</g>
<g id="clust11" class="cluster">
<title>cluster_AppModule_imports</title>
<polygon fill="none" stroke="#000000" points="376,-78 376,-130 520,-130 520,-78 376,-78"/>
</g>
<g id="clust13" class="cluster">
<title>cluster_AppModule_bootstrap</title>
<polygon fill="none" stroke="#000000" points="386,-208 386,-260 510,-260 510,-208 386,-208"/>
</g>
<g id="clust14" class="cluster">
<title>cluster_AppModule_providers</title>
<polygon fill="none" stroke="#000000" points="200,-78 200,-130 368,-130 368,-78 200,-78"/>
</g>
<g id="clust21" class="cluster">
<title>cluster_HomeModule</title>
<polygon fill="none" stroke="#000000" stroke-dasharray="1,5" points="666,-70 666,-195 1424,-195 1424,-70 666,-70"/>
</g>
<g id="clust22" class="cluster">
<title>cluster_HomeModule_declarations</title>
<polygon fill="none" stroke="#000000" points="674,-78 674,-130 1416,-130 1416,-78 674,-78"/>
</g>
<g id="clust32" class="cluster">
<title>cluster_LoginModule</title>
<polygon fill="none" stroke="#000000" stroke-dasharray="1,5" points="1432,-70 1432,-195 1578,-195 1578,-70 1432,-70"/>
</g>
<g id="clust33" class="cluster">
<title>cluster_LoginModule_declarations</title>
<polygon fill="none" stroke="#000000" points="1440,-78 1440,-130 1570,-130 1570,-78 1440,-78"/>
</g>
<g id="clust39" class="cluster">
<title>cluster_PreviewModule</title>
<polygon fill="none" stroke="#000000" stroke-dasharray="1,5" points="1586,-70 1586,-195 1746,-195 1746,-70 1586,-70"/>
</g>
<g id="clust40" class="cluster">
<title>cluster_PreviewModule_declarations</title>
<polygon fill="none" stroke="#000000" points="1594,-78 1594,-130 1738,-130 1738,-78 1594,-78"/>
</g>
<!-- ApiTestingComponent -->
<g id="node1" class="node">
<title>ApiTestingComponent</title>
<polygon fill="#ffffb3" stroke="#000000" points="168.323,-122 23.677,-122 23.677,-86 168.323,-86 168.323,-122"/>
<text text-anchor="middle" x="96" y="-99.8" font-family="Times,serif" font-size="14.00" fill="#000000">ApiTestingComponent</text>
</g>
<!-- ApiTestingModule -->
<g id="node2" class="node">
<title>ApiTestingModule</title>
<polygon fill="#8dd3c7" stroke="#000000" points="157.0409,-187 154.0409,-191 133.0409,-191 130.0409,-187 34.9591,-187 34.9591,-151 157.0409,-151 157.0409,-187"/>
<text text-anchor="middle" x="96" y="-164.8" font-family="Times,serif" font-size="14.00" fill="#000000">ApiTestingModule</text>
</g>
<!-- ApiTestingComponent&#45;&gt;ApiTestingModule -->
<g id="edge1" class="edge">
<title>ApiTestingComponent&#45;&gt;ApiTestingModule</title>
<path fill="none" stroke="#000000" d="M96,-122.1061C96,-122.1061 96,-140.991 96,-140.991"/>
<polygon fill="#000000" stroke="#000000" points="92.5001,-140.9909 96,-150.991 99.5001,-140.991 92.5001,-140.9909"/>
</g>
<!-- AppComponent -->
<g id="node3" class="node">
<title>AppComponent</title>
<polygon fill="#ffffb3" stroke="#000000" points="641.9399,-122 536.0601,-122 536.0601,-86 641.9399,-86 641.9399,-122"/>
<text text-anchor="middle" x="589" y="-99.8" font-family="Times,serif" font-size="14.00" fill="#000000">AppComponent</text>
</g>
<!-- AppModule -->
<g id="node4" class="node">
<title>AppModule</title>
<polygon fill="#8dd3c7" stroke="#000000" points="489.6571,-187 486.6571,-191 465.6571,-191 462.6571,-187 406.3429,-187 406.3429,-151 489.6571,-151 489.6571,-187"/>
<text text-anchor="middle" x="448" y="-164.8" font-family="Times,serif" font-size="14.00" fill="#000000">AppModule</text>
</g>
<!-- AppComponent&#45;&gt;AppModule -->
<g id="edge2" class="edge">
<title>AppComponent&#45;&gt;AppModule</title>
<path fill="none" stroke="#000000" d="M589,-122.2921C589,-144.2057 589,-178 589,-178 589,-178 499.9229,-178 499.9229,-178"/>
<polygon fill="#000000" stroke="#000000" points="499.9229,-174.5001 489.9229,-178 499.9229,-181.5001 499.9229,-174.5001"/>
</g>
<!-- AppComponent  -->
<g id="node6" class="node">
<title>AppComponent </title>
<polygon fill="#80b1d3" stroke="#000000" points="502.439,-252 393.561,-252 393.561,-216 502.439,-216 502.439,-252"/>
<text text-anchor="middle" x="448" y="-229.8" font-family="Times,serif" font-size="14.00" fill="#000000">AppComponent </text>
</g>
<!-- AppModule&#45;&gt;AppComponent  -->
<g id="edge4" class="edge">
<title>AppModule&#45;&gt;AppComponent </title>
<path fill="none" stroke="#000000" stroke-dasharray="1,5" d="M448,-187.1061C448,-187.1061 448,-205.991 448,-205.991"/>
<polygon fill="#000000" stroke="#000000" points="444.5001,-205.9909 448,-215.991 451.5001,-205.991 444.5001,-205.9909"/>
</g>
<!-- AppRoutingModule -->
<g id="node5" class="node">
<title>AppRoutingModule</title>
<polygon fill="#8dd3c7" stroke="#000000" points="512.2744,-122 509.2744,-126 488.2744,-126 485.2744,-122 383.7256,-122 383.7256,-86 512.2744,-86 512.2744,-122"/>
<text text-anchor="middle" x="448" y="-99.8" font-family="Times,serif" font-size="14.00" fill="#000000">AppRoutingModule</text>
</g>
<!-- AppRoutingModule&#45;&gt;AppModule -->
<g id="edge3" class="edge">
<title>AppRoutingModule&#45;&gt;AppModule</title>
<path fill="none" stroke="#000000" d="M448,-122.1061C448,-122.1061 448,-140.991 448,-140.991"/>
<polygon fill="#000000" stroke="#000000" points="444.5001,-140.9909 448,-150.991 451.5001,-140.991 444.5001,-140.9909"/>
</g>
<!-- AppStateService -->
<g id="node7" class="node">
<title>AppStateService</title>
<ellipse fill="#fdb462" stroke="#000000" cx="284" cy="-104" rx="75.8586" ry="18"/>
<text text-anchor="middle" x="284" y="-99.8" font-family="Times,serif" font-size="14.00" fill="#000000">AppStateService</text>
</g>
<!-- AppStateService&#45;&gt;AppModule -->
<g id="edge5" class="edge">
<title>AppStateService&#45;&gt;AppModule</title>
<path fill="none" stroke="#000000" d="M284,-122.1061C284,-141.3391 284,-169 284,-169 284,-169 396.1915,-169 396.1915,-169"/>
<polygon fill="#000000" stroke="#000000" points="396.1916,-172.5001 406.1915,-169 396.1915,-165.5001 396.1916,-172.5001"/>
</g>
<!-- AboutComponent -->
<g id="node8" class="node">
<title>AboutComponent</title>
<polygon fill="#ffffb3" stroke="#000000" points="1408.3301,-122 1291.6699,-122 1291.6699,-86 1408.3301,-86 1408.3301,-122"/>
<text text-anchor="middle" x="1350" y="-99.8" font-family="Times,serif" font-size="14.00" fill="#000000">AboutComponent</text>
</g>
<!-- HomeModule -->
<g id="node13" class="node">
<title>HomeModule</title>
<polygon fill="#8dd3c7" stroke="#000000" points="1080.7619,-187 1077.7619,-191 1056.7619,-191 1053.7619,-187 987.2381,-187 987.2381,-151 1080.7619,-151 1080.7619,-187"/>
<text text-anchor="middle" x="1034" y="-164.8" font-family="Times,serif" font-size="14.00" fill="#000000">HomeModule</text>
</g>
<!-- AboutComponent&#45;&gt;HomeModule -->
<g id="edge6" class="edge">
<title>AboutComponent&#45;&gt;HomeModule</title>
<path fill="none" stroke="#000000" d="M1350,-122.2843C1350,-143.3211 1350,-175 1350,-175 1350,-175 1090.9672,-175 1090.9672,-175"/>
<polygon fill="#000000" stroke="#000000" points="1090.9672,-171.5001 1080.9672,-175 1090.9671,-178.5001 1090.9672,-171.5001"/>
</g>
<!-- AccountComponent -->
<g id="node9" class="node">
<title>AccountComponent</title>
<polygon fill="#ffffb3" stroke="#000000" points="1273.259,-122 1144.741,-122 1144.741,-86 1273.259,-86 1273.259,-122"/>
<text text-anchor="middle" x="1209" y="-99.8" font-family="Times,serif" font-size="14.00" fill="#000000">AccountComponent</text>
</g>
<!-- AccountComponent&#45;&gt;HomeModule -->
<g id="edge7" class="edge">
<title>AccountComponent&#45;&gt;HomeModule</title>
<path fill="none" stroke="#000000" d="M1209,-122.0225C1209,-139.3734 1209,-163 1209,-163 1209,-163 1090.8968,-163 1090.8968,-163"/>
<polygon fill="#000000" stroke="#000000" points="1090.8968,-159.5001 1080.8968,-163 1090.8968,-166.5001 1090.8968,-159.5001"/>
</g>
<!-- AnswerCallModalComponent -->
<g id="node10" class="node">
<title>AnswerCallModalComponent</title>
<polygon fill="#ffffb3" stroke="#000000" points="1126.2478,-122 941.7522,-122 941.7522,-86 1126.2478,-86 1126.2478,-122"/>
<text text-anchor="middle" x="1034" y="-99.8" font-family="Times,serif" font-size="14.00" fill="#000000">AnswerCallModalComponent</text>
</g>
<!-- AnswerCallModalComponent&#45;&gt;HomeModule -->
<g id="edge8" class="edge">
<title>AnswerCallModalComponent&#45;&gt;HomeModule</title>
<path fill="none" stroke="#000000" d="M1034,-122.1061C1034,-122.1061 1034,-140.991 1034,-140.991"/>
<polygon fill="#000000" stroke="#000000" points="1030.5001,-140.9909 1034,-150.991 1037.5001,-140.991 1030.5001,-140.9909"/>
</g>
<!-- ChatComponent -->
<g id="node11" class="node">
<title>ChatComponent</title>
<polygon fill="#ffffb3" stroke="#000000" points="923.7744,-122 816.2256,-122 816.2256,-86 923.7744,-86 923.7744,-122"/>
<text text-anchor="middle" x="870" y="-99.8" font-family="Times,serif" font-size="14.00" fill="#000000">ChatComponent</text>
</g>
<!-- ChatComponent&#45;&gt;HomeModule -->
<g id="edge9" class="edge">
<title>ChatComponent&#45;&gt;HomeModule</title>
<path fill="none" stroke="#000000" d="M870,-122.027C870,-138.3976 870,-160 870,-160 870,-160 977.0042,-160 977.0042,-160"/>
<polygon fill="#000000" stroke="#000000" points="977.0042,-163.5001 987.0042,-160 977.0041,-156.5001 977.0042,-163.5001"/>
</g>
<!-- HomeComponent -->
<g id="node12" class="node">
<title>HomeComponent</title>
<polygon fill="#ffffb3" stroke="#000000" points="797.5451,-122 682.4549,-122 682.4549,-86 797.5451,-86 797.5451,-122"/>
<text text-anchor="middle" x="740" y="-99.8" font-family="Times,serif" font-size="14.00" fill="#000000">HomeComponent</text>
</g>
<!-- HomeComponent&#45;&gt;HomeModule -->
<g id="edge10" class="edge">
<title>HomeComponent&#45;&gt;HomeModule</title>
<path fill="none" stroke="#000000" d="M740,-122.1061C740,-141.3391 740,-169 740,-169 740,-169 977.0897,-169 977.0897,-169"/>
<polygon fill="#000000" stroke="#000000" points="977.0898,-172.5001 987.0897,-169 977.0897,-165.5001 977.0898,-172.5001"/>
</g>
<!-- LoginComponent -->
<g id="node14" class="node">
<title>LoginComponent</title>
<polygon fill="#ffffb3" stroke="#000000" points="1562.2758,-122 1447.7242,-122 1447.7242,-86 1562.2758,-86 1562.2758,-122"/>
<text text-anchor="middle" x="1505" y="-99.8" font-family="Times,serif" font-size="14.00" fill="#000000">LoginComponent</text>
</g>
<!-- LoginModule -->
<g id="node15" class="node">
<title>LoginModule</title>
<polygon fill="#8dd3c7" stroke="#000000" points="1551.493,-187 1548.493,-191 1527.493,-191 1524.493,-187 1458.507,-187 1458.507,-151 1551.493,-151 1551.493,-187"/>
<text text-anchor="middle" x="1505" y="-164.8" font-family="Times,serif" font-size="14.00" fill="#000000">LoginModule</text>
</g>
<!-- LoginComponent&#45;&gt;LoginModule -->
<g id="edge11" class="edge">
<title>LoginComponent&#45;&gt;LoginModule</title>
<path fill="none" stroke="#000000" d="M1505,-122.1061C1505,-122.1061 1505,-140.991 1505,-140.991"/>
<polygon fill="#000000" stroke="#000000" points="1501.5001,-140.9909 1505,-150.991 1508.5001,-140.991 1501.5001,-140.9909"/>
</g>
<!-- PreviewComponent -->
<g id="node16" class="node">
<title>PreviewComponent</title>
<polygon fill="#ffffb3" stroke="#000000" points="1729.7022,-122 1602.2978,-122 1602.2978,-86 1729.7022,-86 1729.7022,-122"/>
<text text-anchor="middle" x="1666" y="-99.8" font-family="Times,serif" font-size="14.00" fill="#000000">PreviewComponent</text>
</g>
<!-- PreviewModule -->
<g id="node17" class="node">
<title>PreviewModule</title>
<polygon fill="#8dd3c7" stroke="#000000" points="1718.9202,-187 1715.9202,-191 1694.9202,-191 1691.9202,-187 1613.0798,-187 1613.0798,-151 1718.9202,-151 1718.9202,-187"/>
<text text-anchor="middle" x="1666" y="-164.8" font-family="Times,serif" font-size="14.00" fill="#000000">PreviewModule</text>
</g>
<!-- PreviewComponent&#45;&gt;PreviewModule -->
<g id="edge12" class="edge">
<title>PreviewComponent&#45;&gt;PreviewModule</title>
<path fill="none" stroke="#000000" d="M1666,-122.1061C1666,-122.1061 1666,-140.991 1666,-140.991"/>
<polygon fill="#000000" stroke="#000000" points="1662.5001,-140.9909 1666,-150.991 1669.5001,-140.991 1662.5001,-140.9909"/>
</g>
</g>
</svg>
