<?xml version="1.0" encoding="UTF-8" standalone="no"?>
<!DOCTYPE svg PUBLIC "-//W3C//DTD SVG 1.1//EN"
 "http://www.w3.org/Graphics/SVG/1.1/DTD/svg11.dtd">
<!-- Generated by graphviz version 2.40.1 (20161225.0304)
 -->
<!-- Title: dependencies Pages: 1 -->
<svg width="1615pt" height="284pt"
 viewBox="0.00 0.00 1615.00 284.00" xmlns="http://www.w3.org/2000/svg" xmlns:xlink="http://www.w3.org/1999/xlink">
<g id="graph0" class="graph" transform="scale(1 1) rotate(0) translate(4 280)">
<title>dependencies</title>
<polygon fill="#ffffff" stroke="transparent" points="-4,4 -4,-280 1611,-280 1611,4 -4,4"/>
<text text-anchor="start" x="782.5091" y="-42.4" font-family="sans-serif" font-weight="bold" font-size="14.00" fill="#000000">Legend</text>
<polygon fill="#ffffb3" stroke="transparent" points="569.5,-10 569.5,-30 589.5,-30 589.5,-10 569.5,-10"/>
<text text-anchor="start" x="593.129" y="-15.4" font-family="sans-serif" font-size="14.00" fill="#000000"> &#160;Declarations</text>
<polygon fill="#8dd3c7" stroke="transparent" points="682.5,-10 682.5,-30 702.5,-30 702.5,-10 682.5,-10"/>
<text text-anchor="start" x="706.2251" y="-15.4" font-family="sans-serif" font-size="14.00" fill="#000000"> &#160;Module</text>
<polygon fill="#80b1d3" stroke="transparent" points="768.5,-10 768.5,-30 788.5,-30 788.5,-10 768.5,-10"/>
<text text-anchor="start" x="792.2812" y="-15.4" font-family="sans-serif" font-size="14.00" fill="#000000"> &#160;Bootstrap</text>
<polygon fill="#fdb462" stroke="transparent" points="865.5,-10 865.5,-30 885.5,-30 885.5,-10 865.5,-10"/>
<text text-anchor="start" x="889.1732" y="-15.4" font-family="sans-serif" font-size="14.00" fill="#000000"> &#160;Providers</text>
<polygon fill="#fb8072" stroke="transparent" points="961.5,-10 961.5,-30 981.5,-30 981.5,-10 961.5,-10"/>
<text text-anchor="start" x="985.2258" y="-15.4" font-family="sans-serif" font-size="14.00" fill="#000000"> &#160;Exports</text>
<g id="clust1" class="cluster">
<title>cluster_ApiTestingModule</title>
<polygon fill="none" stroke="#000000" stroke-dasharray="1,5" points="8,-70 8,-195 184,-195 184,-70 8,-70"/>
</g>
<g id="clust2" class="cluster">
<title>cluster_ApiTestingModule_declarations</title>
<polygon fill="none" stroke="#000000" points="16,-78 16,-130 176,-130 176,-78 16,-78"/>
</g>
<g id="clust8" class="cluster">
<title>cluster_AppModule</title>
<polygon fill="none" stroke="#000000" stroke-dasharray="1,5" points="192,-70 192,-268 658,-268 658,-70 192,-70"/>
</g>
<g id="clust9" class="cluster">
<title>cluster_AppModule_declarations</title>
<polygon fill="none" stroke="#000000" points="528,-78 528,-130 650,-130 650,-78 528,-78"/>
</g>
<g id="clust11" class="cluster">
<title>cluster_AppModule_imports</title>
<polygon fill="none" stroke="#000000" points="376,-78 376,-130 520,-130 520,-78 376,-78"/>
</g>
<g id="clust13" class="cluster">
<title>cluster_AppModule_bootstrap</title>
<polygon fill="none" stroke="#000000" points="386,-208 386,-260 510,-260 510,-208 386,-208"/>
</g>
<g id="clust14" class="cluster">
<title>cluster_AppModule_providers</title>
<polygon fill="none" stroke="#000000" points="200,-78 200,-130 368,-130 368,-78 200,-78"/>
</g>
<g id="clust21" class="cluster">
<title>cluster_HomeModule</title>
<polygon fill="none" stroke="#000000" stroke-dasharray="1,5" points="666,-70 666,-195 1277,-195 1277,-70 666,-70"/>
</g>
<g id="clust22" class="cluster">
<title>cluster_HomeModule_declarations</title>
<polygon fill="none" stroke="#000000" points="674,-78 674,-130 1269,-130 1269,-78 674,-78"/>
</g>
<g id="clust31" class="cluster">
<title>cluster_LoginModule</title>
<polygon fill="none" stroke="#000000" stroke-dasharray="1,5" points="1285,-70 1285,-195 1431,-195 1431,-70 1285,-70"/>
</g>
<g id="clust32" class="cluster">
<title>cluster_LoginModule_declarations</title>
<polygon fill="none" stroke="#000000" points="1293,-78 1293,-130 1423,-130 1423,-78 1293,-78"/>
</g>
<g id="clust38" class="cluster">
<title>cluster_PreviewModule</title>
<polygon fill="none" stroke="#000000" stroke-dasharray="1,5" points="1439,-70 1439,-195 1599,-195 1599,-70 1439,-70"/>
</g>
<g id="clust39" class="cluster">
<title>cluster_PreviewModule_declarations</title>
<polygon fill="none" stroke="#000000" points="1447,-78 1447,-130 1591,-130 1591,-78 1447,-78"/>
</g>
<!-- ApiTestingComponent -->
<g id="node1" class="node">
<title>ApiTestingComponent</title>
<polygon fill="#ffffb3" stroke="#000000" points="168.323,-122 23.677,-122 23.677,-86 168.323,-86 168.323,-122"/>
<text text-anchor="middle" x="96" y="-99.8" font-family="Times,serif" font-size="14.00" fill="#000000">ApiTestingComponent</text>
</g>
<!-- ApiTestingModule -->
<g id="node2" class="node">
<title>ApiTestingModule</title>
<polygon fill="#8dd3c7" stroke="#000000" points="157.0409,-187 154.0409,-191 133.0409,-191 130.0409,-187 34.9591,-187 34.9591,-151 157.0409,-151 157.0409,-187"/>
<text text-anchor="middle" x="96" y="-164.8" font-family="Times,serif" font-size="14.00" fill="#000000">ApiTestingModule</text>
</g>
<!-- ApiTestingComponent&#45;&gt;ApiTestingModule -->
<g id="edge1" class="edge">
<title>ApiTestingComponent&#45;&gt;ApiTestingModule</title>
<path fill="none" stroke="#000000" d="M96,-122.1061C96,-122.1061 96,-140.991 96,-140.991"/>
<polygon fill="#000000" stroke="#000000" points="92.5001,-140.9909 96,-150.991 99.5001,-140.991 92.5001,-140.9909"/>
</g>
<!-- AppComponent -->
<g id="node3" class="node">
<title>AppComponent</title>
<polygon fill="#ffffb3" stroke="#000000" points="641.9399,-122 536.0601,-122 536.0601,-86 641.9399,-86 641.9399,-122"/>
<text text-anchor="middle" x="589" y="-99.8" font-family="Times,serif" font-size="14.00" fill="#000000">AppComponent</text>
</g>
<!-- AppModule -->
<g id="node4" class="node">
<title>AppModule</title>
<polygon fill="#8dd3c7" stroke="#000000" points="489.6571,-187 486.6571,-191 465.6571,-191 462.6571,-187 406.3429,-187 406.3429,-151 489.6571,-151 489.6571,-187"/>
<text text-anchor="middle" x="448" y="-164.8" font-family="Times,serif" font-size="14.00" fill="#000000">AppModule</text>
</g>
<!-- AppComponent&#45;&gt;AppModule -->
<g id="edge2" class="edge">
<title>AppComponent&#45;&gt;AppModule</title>
<path fill="none" stroke="#000000" d="M589,-122.2843C589,-143.3211 589,-175 589,-175 589,-175 499.9229,-175 499.9229,-175"/>
<polygon fill="#000000" stroke="#000000" points="499.9229,-171.5001 489.9229,-175 499.9229,-178.5001 499.9229,-171.5001"/>
</g>
<!-- AppComponent  -->
<g id="node6" class="node">
<title>AppComponent </title>
<polygon fill="#80b1d3" stroke="#000000" points="502.439,-252 393.561,-252 393.561,-216 502.439,-216 502.439,-252"/>
<text text-anchor="middle" x="448" y="-229.8" font-family="Times,serif" font-size="14.00" fill="#000000">AppComponent </text>
</g>
<!-- AppModule&#45;&gt;AppComponent  -->
<g id="edge4" class="edge">
<title>AppModule&#45;&gt;AppComponent </title>
<path fill="none" stroke="#000000" stroke-dasharray="1,5" d="M448,-187.1061C448,-187.1061 448,-205.991 448,-205.991"/>
<polygon fill="#000000" stroke="#000000" points="444.5001,-205.9909 448,-215.991 451.5001,-205.991 444.5001,-205.9909"/>
</g>
<!-- AppRoutingModule -->
<g id="node5" class="node">
<title>AppRoutingModule</title>
<polygon fill="#8dd3c7" stroke="#000000" points="512.2744,-122 509.2744,-126 488.2744,-126 485.2744,-122 383.7256,-122 383.7256,-86 512.2744,-86 512.2744,-122"/>
<text text-anchor="middle" x="448" y="-99.8" font-family="Times,serif" font-size="14.00" fill="#000000">AppRoutingModule</text>
</g>
<!-- AppRoutingModule&#45;&gt;AppModule -->
<g id="edge3" class="edge">
<title>AppRoutingModule&#45;&gt;AppModule</title>
<path fill="none" stroke="#000000" d="M448,-122.1061C448,-122.1061 448,-140.991 448,-140.991"/>
<polygon fill="#000000" stroke="#000000" points="444.5001,-140.9909 448,-150.991 451.5001,-140.991 444.5001,-140.9909"/>
</g>
<!-- AppStateService -->
<g id="node7" class="node">
<title>AppStateService</title>
<ellipse fill="#fdb462" stroke="#000000" cx="284" cy="-104" rx="75.8586" ry="18"/>
<text text-anchor="middle" x="284" y="-99.8" font-family="Times,serif" font-size="14.00" fill="#000000">AppStateService</text>
</g>
<!-- AppStateService&#45;&gt;AppModule -->
<g id="edge5" class="edge">
<title>AppStateService&#45;&gt;AppModule</title>
<path fill="none" stroke="#000000" d="M284,-122.1061C284,-141.3391 284,-169 284,-169 284,-169 396.1915,-169 396.1915,-169"/>
<polygon fill="#000000" stroke="#000000" points="396.1916,-172.5001 406.1915,-169 396.1915,-165.5001 396.1916,-172.5001"/>
</g>
<!-- AboutComponent -->
<g id="node8" class="node">
<title>AboutComponent</title>
<polygon fill="#ffffb3" stroke="#000000" points="1261.3301,-122 1144.6699,-122 1144.6699,-86 1261.3301,-86 1261.3301,-122"/>
<text text-anchor="middle" x="1203" y="-99.8" font-family="Times,serif" font-size="14.00" fill="#000000">AboutComponent</text>
</g>
<!-- HomeModule -->
<g id="node12" class="node">
<title>HomeModule</title>
<polygon fill="#8dd3c7" stroke="#000000" points="998.7619,-187 995.7619,-191 974.7619,-191 971.7619,-187 905.2381,-187 905.2381,-151 998.7619,-151 998.7619,-187"/>
<text text-anchor="middle" x="952" y="-164.8" font-family="Times,serif" font-size="14.00" fill="#000000">HomeModule</text>
</g>
<!-- AboutComponent&#45;&gt;HomeModule -->
<g id="edge6" class="edge">
<title>AboutComponent&#45;&gt;HomeModule</title>
<path fill="none" stroke="#000000" d="M1203,-122.1061C1203,-141.3391 1203,-169 1203,-169 1203,-169 1008.9167,-169 1008.9167,-169"/>
<polygon fill="#000000" stroke="#000000" points="1008.9168,-165.5001 998.9167,-169 1008.9167,-172.5001 1008.9168,-165.5001"/>
</g>
<!-- AnswerCallModalComponent -->
<g id="node9" class="node">
<title>AnswerCallModalComponent</title>
<polygon fill="#ffffb3" stroke="#000000" points="1126.2478,-122 941.7522,-122 941.7522,-86 1126.2478,-86 1126.2478,-122"/>
<text text-anchor="middle" x="1034" y="-99.8" font-family="Times,serif" font-size="14.00" fill="#000000">AnswerCallModalComponent</text>
</g>
<!-- AnswerCallModalComponent&#45;&gt;HomeModule -->
<g id="edge7" class="edge">
<title>AnswerCallModalComponent&#45;&gt;HomeModule</title>
<path fill="none" stroke="#000000" d="M970.2535,-122.1061C970.2535,-122.1061 970.2535,-140.991 970.2535,-140.991"/>
<polygon fill="#000000" stroke="#000000" points="966.7536,-140.9909 970.2535,-150.991 973.7536,-140.991 966.7536,-140.9909"/>
</g>
<!-- ChatComponent -->
<g id="node10" class="node">
<title>ChatComponent</title>
<polygon fill="#ffffb3" stroke="#000000" points="923.7744,-122 816.2256,-122 816.2256,-86 923.7744,-86 923.7744,-122"/>
<text text-anchor="middle" x="870" y="-99.8" font-family="Times,serif" font-size="14.00" fill="#000000">ChatComponent</text>
</g>
<!-- ChatComponent&#45;&gt;HomeModule -->
<g id="edge8" class="edge">
<title>ChatComponent&#45;&gt;HomeModule</title>
<path fill="none" stroke="#000000" d="M914.5032,-122.1061C914.5032,-122.1061 914.5032,-140.991 914.5032,-140.991"/>
<polygon fill="#000000" stroke="#000000" points="911.0032,-140.9909 914.5032,-150.991 918.0032,-140.991 911.0032,-140.9909"/>
</g>
<!-- HomeComponent -->
<g id="node11" class="node">
<title>HomeComponent</title>
<polygon fill="#ffffb3" stroke="#000000" points="797.5451,-122 682.4549,-122 682.4549,-86 797.5451,-86 797.5451,-122"/>
<text text-anchor="middle" x="740" y="-99.8" font-family="Times,serif" font-size="14.00" fill="#000000">HomeComponent</text>
</g>
<!-- HomeComponent&#45;&gt;HomeModule -->
<g id="edge9" class="edge">
<title>HomeComponent&#45;&gt;HomeModule</title>
<path fill="none" stroke="#000000" d="M740,-122.0225C740,-139.3734 740,-163 740,-163 740,-163 895.2133,-163 895.2133,-163"/>
<polygon fill="#000000" stroke="#000000" points="895.2133,-166.5001 905.2133,-163 895.2132,-159.5001 895.2133,-166.5001"/>
</g>
<!-- LoginComponent -->
<g id="node13" class="node">
<title>LoginComponent</title>
<polygon fill="#ffffb3" stroke="#000000" points="1415.2758,-122 1300.7242,-122 1300.7242,-86 1415.2758,-86 1415.2758,-122"/>
<text text-anchor="middle" x="1358" y="-99.8" font-family="Times,serif" font-size="14.00" fill="#000000">LoginComponent</text>
</g>
<!-- LoginModule -->
<g id="node14" class="node">
<title>LoginModule</title>
<polygon fill="#8dd3c7" stroke="#000000" points="1404.493,-187 1401.493,-191 1380.493,-191 1377.493,-187 1311.507,-187 1311.507,-151 1404.493,-151 1404.493,-187"/>
<text text-anchor="middle" x="1358" y="-164.8" font-family="Times,serif" font-size="14.00" fill="#000000">LoginModule</text>
</g>
<!-- LoginComponent&#45;&gt;LoginModule -->
<g id="edge10" class="edge">
<title>LoginComponent&#45;&gt;LoginModule</title>
<path fill="none" stroke="#000000" d="M1358,-122.1061C1358,-122.1061 1358,-140.991 1358,-140.991"/>
<polygon fill="#000000" stroke="#000000" points="1354.5001,-140.9909 1358,-150.991 1361.5001,-140.991 1354.5001,-140.9909"/>
</g>
<!-- PreviewComponent -->
<g id="node15" class="node">
<title>PreviewComponent</title>
<polygon fill="#ffffb3" stroke="#000000" points="1582.7022,-122 1455.2978,-122 1455.2978,-86 1582.7022,-86 1582.7022,-122"/>
<text text-anchor="middle" x="1519" y="-99.8" font-family="Times,serif" font-size="14.00" fill="#000000">PreviewComponent</text>
</g>
<!-- PreviewModule -->
<g id="node16" class="node">
<title>PreviewModule</title>
<polygon fill="#8dd3c7" stroke="#000000" points="1571.9202,-187 1568.9202,-191 1547.9202,-191 1544.9202,-187 1466.0798,-187 1466.0798,-151 1571.9202,-151 1571.9202,-187"/>
<text text-anchor="middle" x="1519" y="-164.8" font-family="Times,serif" font-size="14.00" fill="#000000">PreviewModule</text>
</g>
<!-- PreviewComponent&#45;&gt;PreviewModule -->
<g id="edge11" class="edge">
<title>PreviewComponent&#45;&gt;PreviewModule</title>
<path fill="none" stroke="#000000" d="M1519,-122.1061C1519,-122.1061 1519,-140.991 1519,-140.991"/>
<polygon fill="#000000" stroke="#000000" points="1515.5001,-140.9909 1519,-150.991 1522.5001,-140.991 1515.5001,-140.9909"/>
</g>
</g>
</svg>
